#!OML:ASF E:\Steps\Project 1\Capture day 1\Session 2\Subject.ASF
:FULLY-SPECIFIED
:DEGREES
370
root 8.77645 15.5681 18.8238 -144.757 -86.6779 166.545
lowerback -21.2688 -4.70677 -4.99162
upperback -1.20251 -5.02506 -1.45476
thorax 10.877 -2.63676 -0.316631
lowerneck -0.470281 1.9013 -18.1368
upperneck 4.02428 1.94067 22.2834
head 0.76364 0.93849 10.1188
rclavicle -1.5704e-014 -3.18055e-015
rhumerus -46.7748 -16.9599 -77.7673
rradius 24.6837
rwrist 11.1841
rhand -11.27 -53.3947
rfingers 7.12502
rthumb 14.7604 -82.8491
lclavicle -1.5704e-014 -3.18055e-015
lhumerus -20.2518 0.234305 83.6565
lradius 20.6722
lwrist -16.2004
lhand -30.9527 -15.7893
lfingers 7.12502
lthumb -4.23751 14.1483
rfemur -34.3023 7.54003 21.302
rtibia 41.6133
rfoot -30.4871 -9.11413
rtoes -38.9908
lfemur -35.7712 -10.7762 -18.0669
ltibia 42.2551
lfoot -19.1518 -0.832229
ltoes -29.9694
371
root 8.77403 15.5335 18.8318 -142.342 -87.0183 164.194
lowerback -21.6546 -4.59074 -5.12305
upperback -1.13927 -4.80391 -1.5153
thorax 11.1574 -2.53745 -0.274026
lowerneck -0.272502 1.92127 -18.166
upperneck 4.04226 1.93778 22.2834
head 0.733996 0.92658 10.1221
rclavicle 8.15017e-015 3.73715e-014
rhumerus -46.3302 -17.6883 -77.434
rradius 24.2294
rwrist 12.7847
rhand -11.6607 -53.3423
rfingers 7.12502
rthumb 14.384 -82.824
lclavicle 8.15017e-015 3.73715e-014
lhumerus -20.6827 2.18164 83.2388
lradius 20.3607
lwrist -17.348
lhand -32.1809 -15.0169
lfingers 7.12502
lthumb -5.42338 14.8937
rfemur -33.8852 8.56374 20.8204
rtibia 40.108
rfoot -31.1516 -8.32018
rtoes -31.6632
lfemur -36.0658 -11.3691 -18.0302
ltibia 42.7244
lfoot -20.0117 -0.936354
ltoes -26.55
372
root 8.76911 15.5221 18.8413 -139.767 -87.2348 161.683
lowerback -22.1053 -4.47518 -5.28258
upperback -1.06022 -4.57072 -1.56178
thorax 11.4945 -2.43515 -0.199558
lowerneck -0.12771 1.92966 -18.1737
upperneck 4.07324 1.92427 22.2784
head 0.719916 0.912495 10.1206
rclavicle 7.55382e-015 -4.45278e-014
rhumerus -45.7118 -17.7211 -77.6647
rradius 24.0583
rwrist 12.9111
rhand -12.8916 -53.6314
rfingers 7.12502
rthumb 13.1977 -83.1937
lclavicle 7.55382e-015 -4.45278e-014
lhumerus -21.0965 3.36015 82.9598
lradius 19.9843
lwrist -17.3846
lhand -33.2989 -14.1707
lfingers 7.12502
lthumb -6.5028 15.7094
rfemur -33.68 8.40431 20.709
rtibia 39.3466
rfoot -31.78 -7.85154
rtoes -28.0663
lfemur -36.2617 -11.9444 -18.0171
ltibia 42.9593
lfoot -20.4337 -0.638555
ltoes -26.0904
373
root 8.76226 15.5305 18.8458 -137.276 -87.3021 159.283
lowerback -22.6147 -4.30457 -5.63306
upperback -0.946531 -4.20622 -1.61559
thorax 11.9109 -2.28362 0.0146676
lowerneck -0.0990899 1.85294 -17.9714
upperneck 4.04957 1.81331 22.2395
head 0.735066 0.857464 10.0695
rclavicle 1.43125e-014 -3.65764e-014
rhumerus -45.4301 -18.1202 -77.7556
rradius 24.5971
rwrist 12.8079
rhand -12.9685 -54.4888
rfingers 7.12502
rthumb 13.1235 -84.0558
lclavicle 1.43125e-014 -3.65764e-014
lhumerus -21.3488 3.74752 82.8565
lradius 19.507
lwrist -16.4551
lhand -33.9682 -13.5764
lfingers 7.12502
lthumb -7.14889 16.2828
rfemur -33.3013 9.44439 20.3188
rtibia 38.152
rfoot -32.0525 -7.68128
rtoes -22.4607
lfemur -36.365 -12.3741 -18.0189
ltibia 42.8852
lfoot -20.5876 -0.197684
ltoes -26.9694
374
root 8.75547 15.5599 18.8465 -134.484 -87.2046 156.56
lowerback -23.0243 -4.22986 -6.19148
upperback -0.875295 -3.92883 -1.58767
thorax 12.2464 -2.18943 0.422233
lowerneck -0.122568 1.82293 -17.886
upperneck 4.07681 1.77295 22.1834
head 0.757324 0.840238 10.0346
rclavicle 1.05356e-014 -7.95139e-016
rhumerus -44.9068 -17.8698 -78.0383
rradius 24.9252
rwrist 12.2955
rhand -12.5964 -54.9577
rfingers 7.12502
rthumb 13.4822 -84.5013
lclavicle 1.05356e-014 -7.95139e-016
lhumerus -21.7423 4.26371 82.7658
lradius 19.0823
lwrist -15.2328
lhand -34.0185 -13.2118
lfingers 7.12502
lthumb -7.19744 16.6458
rfemur -32.9743 9.20571 20.3607
rtibia 38.06
rfoot -32.291 -9.46354
rtoes -28.5308
lfemur -36.2852 -12.6367 -18.1069
ltibia 42.4643
lfoot -20.5651 0.371564
ltoes -29.3414
375
root 8.74693 15.6032 18.8421 -130.951 -87.1342 153.137
lowerback -23.4291 -4.28825 -6.81123
upperback -0.878704 -3.82094 -1.47913
thorax 12.5103 -2.1818 0.904587
lowerneck -0.140517 1.8364 -18.0482
upperneck 4.13128 1.79479 22.1612
head 0.769734 0.852325 10.0578
rclavicle 4.57205e-015 2.62396e-014
rhumerus -44.1609 -16.9293 -78.5328
rradius 24.8997
rwrist 11.3381
rhand -13.0115 -54.0713
rfingers 7.12502
rthumb 13.0821 -83.641
lclavicle 4.57205e-015 2.62396e-014
lhumerus -22.4029 5.20968 82.5797
lradius 18.849
lwrist -14.1383
lhand -33.61 -12.728
lfingers 7.12502
lthumb -6.80308 17.1427
rfemur -32.749 9.3951 20.0492
rtibia 37.4695
rfoot -32.3617 -9.2366
rtoes -26.1606
lfemur -36.0702 -12.8153 -18.184
ltibia 41.6618
lfoot -20.4112 0.597661
ltoes -31.0177
